<?xml version="1.0" encoding="UTF-8" standalone="no"?>
<!-- Created with Inkscape (http://www.inkscape.org/) -->

<svg
   width="67.23027mm"
   height="39.545681mm"
   viewBox="0 0 67.23027 39.545681"
   version="1.1"
   id="svg106541"
   inkscape:version="1.2.2 (b0a8486541, 2022-12-01)"
   sodipodi:docname="hibb_21-48.svg"
   inkscape:export-filename="../../../../../../hibb_21-48.png"
   inkscape:export-xdpi="500.05"
   inkscape:export-ydpi="500.05"
   xmlns:inkscape="http://www.inkscape.org/namespaces/inkscape"
   xmlns:sodipodi="http://sodipodi.sourceforge.net/DTD/sodipodi-0.dtd"
   xmlns="http://www.w3.org/2000/svg"
   xmlns:svg="http://www.w3.org/2000/svg">
  <sodipodi:namedview
     id="namedview106543"
     pagecolor="#ffffff"
     bordercolor="#666666"
     borderopacity="1.0"
     inkscape:showpageshadow="2"
     inkscape:pageopacity="0.0"
     inkscape:pagecheckerboard="0"
     inkscape:deskcolor="#d1d1d1"
     inkscape:document-units="mm"
     showgrid="false"
     inkscape:zoom="2.9355513"
     inkscape:cx="94.190144"
     inkscape:cy="74.432356"
     inkscape:window-width="1920"
     inkscape:window-height="1062"
     inkscape:window-x="0"
     inkscape:window-y="1"
     inkscape:window-maximized="1"
     inkscape:current-layer="layer1" />
  <defs
     id="defs106538">
    <clipPath
       clipPathUnits="userSpaceOnUse"
       id="clipPath95030">
      <path
         d="M 285.221,400.83 H 95.082 V 289.233 h 190.139 z"
         id="path95028" />
    </clipPath>
    <clipPath
       clipPathUnits="userSpaceOnUse"
       id="clipPath95074">
      <path
         d="m 122.652,379.291 -12.138,-15.738 -14.998,11.555 12.138,15.738"
         id="path95072" />
    </clipPath>
    <clipPath
       clipPathUnits="userSpaceOnUse"
       id="clipPath95088">
      <path
         d="m 122.65268,379.29119 -12.1381,-15.7377 -14.998887,11.55531 12.138097,15.7377 z"
         id="path95086" />
    </clipPath>
    <linearGradient
       x1="0"
       y1="0"
       x2="1"
       y2="0"
       gradientUnits="userSpaceOnUse"
       gradientTransform="matrix(-5.2031,-6.7461,-6.7499,5.2002,113.275,384.256)"
       spreadMethod="pad"
       id="linearGradient95096">
      <stop
         style="stop-opacity:1;stop-color:#cbccce"
         offset="0"
         id="stop95090" />
      <stop
         style="stop-opacity:1;stop-color:#e7e8e8"
         offset="0.51"
         id="stop95092" />
      <stop
         style="stop-opacity:1;stop-color:#c7c9cb"
         offset="1"
         id="stop95094" />
    </linearGradient>
    <clipPath
       clipPathUnits="userSpaceOnUse"
       id="clipPath95114">
      <path
         d="m 160.86,347.404 c 0,0 9.89,5.586 11.578,6.534 1.687,0.949 3.171,4.317 0.324,5.371 l -59.61,21.676 c -0.547,0.199 -1.314,-0.52 -1.712,-1.614 -0.399,-1.095 -0.278,-2.149 0.269,-2.349 l 56.351,-20.532 -10.23,-5.902 c -2.637,-1.687 -4.051,-5.679 1.222,-7.576 l 12.685,-4.614 c 2.177,-0.69 4.392,-1.429 7.872,0.679 3.481,2.108 9.56,5.481 11.142,6.43 1.582,0.948 3.051,1.555 6.319,0.501 l 59.892,-21.809 c 0.548,-0.199 1.315,0.533 1.714,1.627 0.397,1.094 0.277,2.135 -0.27,2.334 l -60.274,21.915 c -3.48,1.265 -6.253,0.743 -7.519,0.006 -1.265,-0.738 -9.105,-5.312 -11.215,-6.472 -2.109,-1.159 -4.324,-1.581 -6.335,-0.839 l -12.203,4.634"
         id="path95112" />
    </clipPath>
    <clipPath
       clipPathUnits="userSpaceOnUse"
       id="clipPath95378">
      <path
         d="m 268.105,326.601 -12.137,-15.737 -14.998,11.555 12.137,15.737"
         id="path95376" />
    </clipPath>
    <clipPath
       clipPathUnits="userSpaceOnUse"
       id="clipPath95392">
      <path
         d="m 268.10621,326.60076 -12.13761,-15.7373 -14.99832,11.55471 12.13761,15.7373 z"
         id="path95390" />
    </clipPath>
    <linearGradient
       x1="0"
       y1="0"
       x2="1"
       y2="0"
       gradientUnits="userSpaceOnUse"
       gradientTransform="matrix(-5.2031,-6.7462,-6.75,5.2002,258.731,331.565)"
       spreadMethod="pad"
       id="linearGradient95400">
      <stop
         style="stop-opacity:1;stop-color:#cbccce"
         offset="0"
         id="stop95394" />
      <stop
         style="stop-opacity:1;stop-color:#e7e8e8"
         offset="0.51"
         id="stop95396" />
      <stop
         style="stop-opacity:1;stop-color:#c7c9cb"
         offset="1"
         id="stop95398" />
    </linearGradient>
  </defs>
  <g
     inkscape:label="Layer 1"
     inkscape:groupmode="layer"
     id="layer1"
     transform="translate(-71.148563,-175.17579)">
    <path
       d="M 71.148563,214.72147 H 138.37883 V 175.17579 H 71.148563 Z"
       style="fill:#ffffff;fill-opacity:1;fill-rule:nonzero;stroke:none;stroke-width:0.352778"
       id="path94942" />
    <g
       id="g94944"
       transform="matrix(0.35277777,0,0,-0.35277777,92.598862,193.63629)">
      <path
         d="m 0,0 c -1.406,-2.81 -2.531,-9.837 -0.844,-8.151 1.688,1.687 5.344,1.124 5.062,-0.281 -0.28,-1.405 1.125,-4.498 3.375,-2.811 2.25,1.687 4.5,1.406 5.625,-0.563 1.125,-1.966 2.531,-4.777 4.499,-3.372 1.969,1.406 4.219,3.654 4.781,2.53 0.562,-1.124 1.677,0.332 4.208,2.58 2.531,2.25 3.667,1.636 4.511,1.074 0.843,-0.562 2.25,0.843 3.656,2.248 1.405,1.405 3.938,3.372 3.656,5.341 C 38.246,0.562 24.186,-6.184 19.124,-7.59 14.062,-8.994 2.25,-2.53 0,0"
         style="fill:#eff0f0;fill-opacity:1;fill-rule:nonzero;stroke:none"
         id="path94946" />
    </g>
    <g
       id="g94948"
       transform="matrix(0.35277777,0,0,-0.35277777,92.598862,193.63629)">
      <path
         d="m 0,0 c -1.406,-2.81 -2.39,-9.612 -0.702,-7.927 1.687,1.687 5.258,1.069 4.977,-0.337 -0.282,-1.405 1.096,-4.412 3.346,-2.726 2.251,1.686 4.528,1.321 5.653,-0.647 1.125,-1.966 2.475,-4.693 4.443,-3.289 1.969,1.406 4.219,3.571 4.781,2.446 0.562,-1.123 1.677,0.356 4.209,2.604 2.531,2.249 3.61,1.696 4.453,1.134 0.844,-0.562 2.278,0.815 3.683,2.221 1.408,1.405 3.968,3.147 3.686,5.116 C 38.246,0.562 24.186,-6.184 19.124,-7.59 14.062,-8.994 2.25,-2.53 0,0"
         style="fill:#eaebec;fill-opacity:1;fill-rule:nonzero;stroke:none"
         id="path94950" />
    </g>
    <g
       id="g94952"
       transform="matrix(0.35277777,0,0,-0.35277777,92.598862,193.63629)">
      <path
         d="m 0,0 c -1.406,-2.81 -2.249,-9.388 -0.562,-7.702 1.687,1.687 5.174,1.013 4.894,-0.393 -0.282,-1.405 1.068,-4.328 3.317,-2.642 2.251,1.686 4.557,1.237 5.682,-0.73 1.125,-1.968 2.418,-4.611 4.386,-3.205 1.969,1.405 4.219,3.485 4.781,2.361 0.562,-1.124 1.679,0.378 4.211,2.627 2.531,2.249 3.551,1.757 4.395,1.195 0.843,-0.562 2.305,0.787 3.712,2.193 1.406,1.405 3.995,2.922 3.713,4.891 C 38.246,0.562 24.186,-6.184 19.124,-7.59 14.062,-8.994 2.25,-2.53 0,0"
         style="fill:#e5e6e7;fill-opacity:1;fill-rule:nonzero;stroke:none"
         id="path94954" />
    </g>
    <g
       id="g94956"
       transform="matrix(0.35277777,0,0,-0.35277777,92.598862,193.63629)">
      <path
         d="m 0,0 c -1.406,-2.81 -2.109,-9.163 -0.422,-7.477 1.687,1.687 5.091,0.956 4.809,-0.45 -0.281,-1.406 1.041,-4.244 3.291,-2.558 2.249,1.688 4.584,1.152 5.708,-0.814 1.126,-1.968 2.363,-4.525 4.331,-3.12 1.969,1.406 4.219,3.401 4.781,2.277 0.562,-1.125 1.68,0.401 4.211,2.649 2.532,2.25 3.495,1.82 4.339,1.258 0.843,-0.562 2.334,0.758 3.739,2.164 1.408,1.405 4.024,2.697 3.742,4.666 C 38.246,0.562 24.186,-6.184 19.124,-7.59 14.062,-8.994 2.25,-2.53 0,0"
         style="fill:#dedfe1;fill-opacity:1;fill-rule:nonzero;stroke:none"
         id="path94958" />
    </g>
    <g
       id="g94960"
       transform="matrix(0.35277777,0,0,-0.35277777,92.598862,193.63629)">
      <path
         d="m 0,0 c -1.406,-2.81 -1.968,-8.939 -0.281,-7.251 1.688,1.686 5.005,0.899 4.725,-0.507 -0.282,-1.405 1.012,-4.16 3.262,-2.473 2.249,1.686 4.612,1.068 5.736,-0.899 1.126,-1.968 2.307,-4.441 4.275,-3.036 1.969,1.405 4.219,3.316 4.781,2.192 0.562,-1.124 1.681,0.424 4.213,2.673 2.53,2.249 3.437,1.88 4.28,1.318 0.844,-0.562 2.363,0.732 3.77,2.136 1.404,1.406 4.05,2.473 3.768,4.442 C 38.246,0.562 24.186,-6.184 19.124,-7.59 14.062,-8.994 2.25,-2.53 0,0"
         style="fill:#dcddde;fill-opacity:1;fill-rule:nonzero;stroke:none"
         id="path94962" />
    </g>
    <g
       id="g94964"
       transform="matrix(0.35277777,0,0,-0.35277777,92.598862,193.63629)">
      <path
         d="m 0,0 c -1.406,-2.81 -1.828,-8.714 -0.14,-7.027 1.687,1.686 4.921,0.843 4.64,-0.563 -0.282,-1.404 0.984,-4.074 3.234,-2.388 2.25,1.686 4.641,0.984 5.765,-0.984 1.125,-1.968 2.25,-4.356 4.218,-2.952 1.969,1.406 4.219,3.233 4.781,2.108 0.562,-1.124 1.682,0.448 4.214,2.696 2.531,2.25 3.38,1.942 4.223,1.381 0.844,-0.563 2.391,0.702 3.797,2.108 1.405,1.405 4.079,2.247 3.797,4.216 C 38.246,0.562 24.186,-6.184 19.124,-7.59 14.062,-8.994 2.25,-2.53 0,0"
         style="fill:#d8d9db;fill-opacity:1;fill-rule:nonzero;stroke:none"
         id="path94966" />
    </g>
    <g
       id="g94968"
       transform="matrix(0.35277777,0,0,-0.35277777,92.598862,193.63629)">
      <path
         d="m 0,0 c -1.406,-2.81 -1.687,-8.489 0,-6.802 1.687,1.686 4.837,0.787 4.556,-0.619 -0.281,-1.405 0.956,-3.991 3.206,-2.303 2.25,1.686 4.668,0.898 5.794,-1.069 1.125,-1.968 2.193,-4.273 4.161,-2.867 1.969,1.406 4.219,3.148 4.781,2.023 0.562,-1.124 1.683,0.471 4.215,2.719 2.531,2.249 3.322,2.004 4.166,1.441 0.843,-0.561 2.418,0.675 3.825,2.081 1.406,1.405 4.107,2.022 3.825,3.991 C 38.246,0.562 24.186,-6.184 19.124,-7.59 14.062,-8.994 2.25,-2.53 0,0"
         style="fill:#d3d4d6;fill-opacity:1;fill-rule:nonzero;stroke:none"
         id="path94970" />
    </g>
    <g
       id="g94972"
       transform="matrix(0.35277777,0,0,-0.35277777,92.598862,193.63629)">
      <path
         d="m 0,0 c -1.406,-2.81 -1.547,-8.264 0.141,-6.577 1.688,1.685 4.753,0.73 4.471,-0.674 -0.28,-1.406 0.928,-3.908 3.179,-2.222 2.249,1.687 4.696,0.816 5.821,-1.152 1.124,-1.968 2.137,-4.188 4.105,-2.782 1.969,1.405 4.219,3.064 4.781,1.94 0.562,-1.126 1.684,0.492 4.215,2.741 2.532,2.249 3.266,2.065 4.11,1.502 0.844,-0.562 2.446,0.647 3.852,2.052 1.407,1.406 4.136,1.798 3.854,3.767 C 38.246,0.562 24.186,-6.184 19.124,-7.59 14.062,-8.994 2.25,-2.53 0,0"
         style="fill:#cecfd1;fill-opacity:1;fill-rule:nonzero;stroke:none"
         id="path94974" />
    </g>
    <g
       id="g94976"
       transform="matrix(0.35277777,0,0,-0.35277777,92.598862,193.63629)">
      <path
         d="m 0,0 c -1.406,-2.81 -1.406,-8.038 0.282,-6.352 1.687,1.686 4.667,0.674 4.387,-0.731 -0.282,-1.406 0.899,-3.822 3.149,-2.137 2.25,1.687 4.725,0.731 5.85,-1.236 1.125,-1.967 2.081,-4.103 4.049,-2.699 1.969,1.406 4.219,2.98 4.781,1.856 0.562,-1.124 1.686,0.516 4.217,2.764 2.532,2.25 3.209,2.126 4.051,1.564 0.844,-0.562 2.476,0.619 3.882,2.024 1.405,1.405 4.163,1.573 3.881,3.542 C 38.246,0.562 24.186,-6.184 19.124,-7.59 14.062,-8.994 2.25,-2.53 0,0"
         style="fill:#cacbcd;fill-opacity:1;fill-rule:nonzero;stroke:none"
         id="path94978" />
    </g>
    <g
       id="g94980"
       transform="matrix(0.35277777,0,0,-0.35277777,92.598862,193.63629)">
      <path
         d="m 0,0 c -1.406,-2.81 -1.265,-7.814 0.422,-6.127 1.687,1.686 4.584,0.619 4.302,-0.787 -0.28,-1.406 0.873,-3.739 3.122,-2.052 2.251,1.686 4.754,0.646 5.879,-1.322 1.124,-1.966 2.024,-4.019 3.992,-2.613 1.969,1.406 4.219,2.895 4.781,1.771 0.562,-1.124 1.686,0.539 4.219,2.787 2.53,2.249 3.15,2.187 3.994,1.625 0.843,-0.562 2.503,0.591 3.907,1.995 1.408,1.406 4.193,1.349 3.911,3.318 C 38.246,0.562 24.186,-6.184 19.124,-7.59 14.062,-8.994 2.25,-2.53 0,0"
         style="fill:#c3c5c7;fill-opacity:1;fill-rule:nonzero;stroke:none"
         id="path94982" />
    </g>
    <g
       id="g94984"
       transform="matrix(0.35277777,0,0,-0.35277777,92.598862,193.63629)">
      <path
         d="M 0,0 C -1.406,-2.81 -1.124,-7.59 0.563,-5.902 2.25,-4.216 5.062,-5.341 4.781,-6.746 4.5,-8.151 5.625,-10.4 7.874,-8.714 c 2.25,1.687 4.781,0.563 5.906,-1.404 1.126,-1.968 1.969,-3.935 3.937,-2.53 1.969,1.405 4.219,2.811 4.781,1.686 0.562,-1.124 1.688,0.562 4.219,2.811 2.532,2.249 3.093,2.249 3.937,1.687 0.843,-0.563 2.53,0.562 3.937,1.966 1.406,1.406 4.22,1.124 3.938,3.093 C 38.246,0.562 24.186,-6.184 19.124,-7.59 14.062,-8.994 2.25,-2.53 0,0"
         style="fill:#c0c2c4;fill-opacity:1;fill-rule:nonzero;stroke:none"
         id="path94986" />
    </g>
    <g
       id="g94988"
       transform="matrix(0.35277777,0,0,-0.35277777,88.471363,183.93208)">
      <path
         d="M 0,0 1.977,-6.112 -0.203,-4.618 -2.282,-4.715 0,0"
         style="fill:#231f20;fill-opacity:1;fill-rule:nonzero;stroke:none"
         id="path94990" />
    </g>
    <g
       id="g94992"
       transform="matrix(0.35277777,0,0,-0.35277777,88.471363,183.93208)">
      <path
         d="m 0,0 1.977,-6.112 -2.18,1.494 -2.079,-0.097 z"
         style="fill:none;stroke:#ffffff;stroke-width:0.992;stroke-linecap:butt;stroke-linejoin:miter;stroke-miterlimit:4;stroke-dasharray:none;stroke-opacity:1"
         id="path94994" />
    </g>
    <g
       id="g94996"
       transform="matrix(0.35277777,0,0,-0.35277777,88.471363,183.93208)">
      <path
         d="M 0,0 1.977,-6.112 -0.203,-4.618 -2.282,-4.715 0,0"
         style="fill:#231f20;fill-opacity:1;fill-rule:nonzero;stroke:none"
         id="path94998" />
    </g>
    <g
       id="g95000"
       transform="matrix(0.35277777,0,0,-0.35277777,88.471363,183.93208)">
      <path
         d="m 0,0 1.977,-6.112 -2.18,1.494 -2.079,-0.097 z"
         style="fill:none;stroke:#ffffff;stroke-width:0.992;stroke-linecap:butt;stroke-linejoin:miter;stroke-miterlimit:4;stroke-dasharray:none;stroke-opacity:1"
         id="path95002" />
    </g>
    <g
       id="g95004"
       transform="matrix(0.35277777,0,0,-0.35277777,88.330957,185.14564)">
      <path
         d="m 0,0 c -0.162,-1.15 -0.467,-2.369 -0.92,-3.597 -1.818,-4.917 -5.346,-8.144 -7.88,-7.208 l 0.792,-0.292 c 2.533,-0.937 6.061,2.291 7.879,7.207 0.466,1.262 0.775,2.513 0.933,3.691 L 0,0"
         style="fill:#231f20;fill-opacity:1;fill-rule:nonzero;stroke:none"
         id="path95006" />
    </g>
    <g
       id="g95008"
       transform="matrix(0.35277777,0,0,-0.35277777,88.330957,185.14564)">
      <path
         d="m 0,0 c -0.162,-1.15 -0.467,-2.369 -0.92,-3.597 -1.818,-4.917 -5.346,-8.144 -7.88,-7.208 l 0.792,-0.292 c 2.533,-0.937 6.061,2.291 7.879,7.207 0.466,1.262 0.775,2.513 0.933,3.691 z"
         style="fill:none;stroke:#ffffff;stroke-width:0.992;stroke-linecap:butt;stroke-linejoin:miter;stroke-miterlimit:4;stroke-dasharray:none;stroke-opacity:1"
         id="path95010" />
    </g>
    <g
       id="g95012"
       transform="matrix(0.35277777,0,0,-0.35277777,88.471363,183.93208)">
      <path
         d="M 0,0 1.977,-6.112 -0.203,-4.618 -2.282,-4.715 0,0"
         style="fill:#005daa;fill-opacity:1;fill-rule:nonzero;stroke:none"
         id="path95014" />
    </g>
    <g
       id="g95016"
       transform="matrix(0.35277777,0,0,-0.35277777,88.330957,185.14564)">
      <path
         d="m 0,0 c -0.162,-1.15 -0.467,-2.369 -0.92,-3.597 -1.818,-4.917 -5.346,-8.144 -7.88,-7.208 l 0.792,-0.292 c 2.533,-0.937 6.061,2.291 7.879,7.207 0.466,1.262 0.775,2.513 0.933,3.691 L 0,0"
         style="fill:#005daa;fill-opacity:1;fill-rule:nonzero;stroke:none"
         id="path95018" />
    </g>
    <g
       id="g95020"
       transform="matrix(0.35277777,0,0,-0.35277777,88.440671,183.37611)">
      <path
         d="M 0,0 C -0.325,0.794 -0.988,1.433 -1.738,1.69 L -2.53,1.983 C -1.687,1.671 -1.174,1.194 -0.778,0.175 L 0,0"
         style="fill:#005daa;fill-opacity:1;fill-rule:nonzero;stroke:none"
         id="path95022" />
    </g>
    <g
       id="g95024"
       transform="matrix(0.35277777,0,0,-0.35277777,37.605747,316.5797)">
      <g
         id="g95026"
         clip-path="url(#clipPath95030)">
        <g
           id="g95032"
           transform="translate(99.668,375.741)">
          <path
             d="M 0,0 C -12.839,-5.863 3.676,-13.131 20.074,-5.778 36.472,1.576 16.681,7.615 0,0"
             style="fill:#eff0f0;fill-opacity:1;fill-rule:nonzero;stroke:none"
             id="path95034" />
        </g>
        <g
           id="g95036"
           transform="translate(100.107,375.632)">
          <path
             d="M 0,0 C -12.374,-5.696 3.542,-12.76 19.345,-5.615 35.149,1.532 16.077,7.402 0,0"
             style="fill:#e9e9ea;fill-opacity:1;fill-rule:nonzero;stroke:none"
             id="path95038" />
        </g>
        <g
           id="g95040"
           transform="translate(100.547,375.523)">
          <path
             d="M 0,0 C -11.908,-5.531 3.409,-12.391 18.617,-5.452 33.825,1.487 15.471,7.187 0,0"
             style="fill:#e2e3e4;fill-opacity:1;fill-rule:nonzero;stroke:none"
             id="path95042" />
        </g>
        <g
           id="g95044"
           transform="translate(100.987,375.415)">
          <path
             d="M 0,0 C -11.443,-5.367 3.275,-12.021 17.888,-5.29 32.501,1.443 14.865,6.972 0,0"
             style="fill:#dcddde;fill-opacity:1;fill-rule:nonzero;stroke:none"
             id="path95046" />
        </g>
        <g
           id="g95048"
           transform="translate(101.427,375.306)">
          <path
             d="M 0,0 C -10.977,-5.202 3.143,-11.651 17.16,-5.127 31.178,1.397 14.26,6.757 0,0"
             style="fill:#d5d7d8;fill-opacity:1;fill-rule:nonzero;stroke:none"
             id="path95050" />
        </g>
        <g
           id="g95052"
           transform="translate(101.866,375.197)">
          <path
             d="M 0,0 C -10.511,-5.036 3.008,-11.28 16.433,-4.963 29.855,1.354 13.655,6.543 0,0"
             style="fill:#cfd0d2;fill-opacity:1;fill-rule:nonzero;stroke:none"
             id="path95054" />
        </g>
        <g
           id="g95056"
           transform="translate(102.306,375.088)">
          <path
             d="M 0,0 C -10.046,-4.872 2.875,-10.91 15.703,-4.8 28.532,1.309 13.049,6.328 0,0"
             style="fill:#c9cbcc;fill-opacity:1;fill-rule:nonzero;stroke:none"
             id="path95058" />
        </g>
        <g
           id="g95060"
           transform="translate(102.746,374.98)">
          <path
             d="M 0,0 C -9.579,-4.707 2.742,-10.54 14.975,-4.638 27.209,1.264 12.444,6.112 0,0"
             style="fill:#c2c4c6;fill-opacity:1;fill-rule:nonzero;stroke:none"
             id="path95062" />
        </g>
      </g>
    </g>
    <g
       id="g95064"
       transform="matrix(0.35277777,0,0,-0.35277777,74.105899,185.763)">
      <path
         d="m 0,0 1.385,7.181 c 0.224,1.562 0.923,3.228 2.009,4.61 1.622,2.061 3.599,2.805 4.905,1.998 L 11.4,12 c 0.358,-0.186 0.686,-0.489 0.933,-0.895 0.205,-0.334 0.336,-0.716 0.428,-1.141 L 14.178,4.477 3.176,-1.834 0,0"
         style="fill:#bec0c2;fill-opacity:1;fill-rule:nonzero;stroke:none"
         id="path95066" />
    </g>
    <g
       id="g95068"
       transform="matrix(0.35277777,0,0,-0.35277777,37.605747,316.5797)">
      <g
         id="g95070"
         clip-path="url(#clipPath95074)">
        <g
           id="g95076">
          <g
             id="g95082">
            <g
               id="g95084"
               clip-path="url(#clipPath95088)">
              <path
                 d="m 111.764,384.608 c -1.306,0.807 -3.283,0.063 -4.905,-1.999 -1.086,-1.381 -1.785,-3.048 -2.009,-4.61 l -1.385,-7.18 3.176,-1.835 1.455,7.16 c 0.224,1.56 0.914,3.214 2.002,4.597 1.497,1.903 3.308,2.675 4.606,2.149 l -2.94,1.718"
                 style="fill:url(#linearGradient95096);stroke:none"
                 id="path95098" />
            </g>
          </g>
        </g>
      </g>
    </g>
    <g
       id="g95100"
       transform="matrix(0.35277777,0,0,-0.35277777,78.070768,181.50462)">
      <path
         d="m 0,0 c -1.297,0.526 -3.109,-0.246 -4.606,-2.149 -1.087,-1.383 -1.778,-3.037 -2.002,-4.597 l -1.454,-7.16"
         style="fill:none;stroke:#ffffff;stroke-width:0.422;stroke-linecap:butt;stroke-linejoin:miter;stroke-miterlimit:4;stroke-dasharray:none;stroke-opacity:1"
         id="path95102" />
    </g>
    <g
       id="g95104"
       transform="matrix(0.35277777,0,0,-0.35277777,76.894254,185.45361)">
      <path
         d="m 0,0 -4.727,-2.712 -3.177,1.835 1.385,7.18 c 0.224,1.562 0.923,3.228 2.009,4.61 1.622,2.062 3.599,2.806 4.905,1.999 l 3.101,-1.79 C 3.854,10.936 4.182,10.634 4.429,10.228 4.634,9.894 4.765,9.512 4.857,9.087 L 6.274,3.599 2.041,1.171"
         style="fill:none;stroke:#231f20;stroke-width:0.496;stroke-linecap:butt;stroke-linejoin:miter;stroke-miterlimit:4;stroke-dasharray:none;stroke-opacity:1"
         id="path95106" />
    </g>
    <g
       id="g95108"
       transform="matrix(0.35277777,0,0,-0.35277777,37.605747,316.5797)">
      <g
         id="g95110"
         clip-path="url(#clipPath95114)">
        <g
           id="g95116"
           transform="translate(160.86,347.404)">
          <path
             d="m 0,0 c 0,0 9.89,5.586 11.578,6.534 1.687,0.949 3.171,4.317 0.324,5.371 l -59.61,21.676 c -0.547,0.199 -1.314,-0.521 -1.712,-1.614 -0.399,-1.095 -0.278,-2.149 0.269,-2.349 L 7.2,9.086 -3.03,3.184 c -2.637,-1.687 -4.051,-5.679 1.222,-7.576 l 12.685,-4.614 c 2.177,-0.691 4.392,-1.429 7.872,0.679 3.481,2.108 9.56,5.481 11.142,6.43 1.582,0.948 3.051,1.555 6.319,0.501 l 59.892,-21.809 c 0.548,-0.199 1.315,0.533 1.714,1.627 0.397,1.093 0.277,2.135 -0.27,2.334 L 37.272,2.671 C 33.792,3.936 31.019,3.414 29.753,2.677 28.488,1.939 20.648,-2.635 18.538,-3.795 16.429,-4.954 14.214,-5.376 12.203,-4.634 L 0,0"
             style="fill:#dadbdd;fill-opacity:1;fill-rule:nonzero;stroke:none"
             id="path95118" />
        </g>
        <g
           id="g95120"
           transform="translate(257.358,324.304)">
          <path
             d="m 0,0 -60.34,21.954 c -3.269,1.054 -4.671,0.461 -6.254,-0.488 -1.582,-0.949 -7.543,-4.255 -11.024,-6.363 -3.48,-2.108 -5.747,-1.41 -7.924,-0.72 l -12.711,4.667 c -5.037,1.815 -3.768,5.468 -1.17,7.141 l 10.19,5.902 c 0.152,0.09 0.152,0.195 0.039,0.251 l -56.509,20.638 c -0.547,0.199 -0.825,1.109 -0.426,2.203 0.398,1.094 1.165,1.602 1.712,1.403 l 59.518,-21.689 c 2.728,-1.04 1.38,-4.103 -0.299,-5.067 -1.674,-0.961 -11.485,-6.548 -11.485,-6.548 -0.147,-0.092 -0.115,-0.171 -0.013,-0.224 l 12.308,-4.672 c 2.071,-0.765 4.319,-0.387 6.506,0.825 2.107,1.165 9.951,5.721 11.216,6.459 1.266,0.737 3.907,1.245 7.387,-0.019 L 1.206,3.659 C 1.753,3.46 1.989,2.57 1.621,1.468 1.261,0.442 0.546,-0.199 0,0"
             style="fill:#cfd0d2;fill-opacity:1;fill-rule:nonzero;stroke:none"
             id="path95122" />
        </g>
        <g
           id="g95124"
           transform="translate(257.753,324.41)">
          <path
             d="m 0,0 -60.787,22.098 c -3.27,1.055 -4.606,0.475 -6.188,-0.474 -1.582,-0.948 -7.425,-4.19 -10.906,-6.298 -3.48,-2.108 -5.8,-1.449 -7.977,-0.758 l -12.737,4.719 c -4.801,1.731 -3.678,5.046 -1.117,6.706 l 10.15,5.902 c 0.303,0.18 0.303,0.39 0.08,0.502 L -146.15,53.14 c -0.546,0.2 -0.984,0.964 -0.585,2.057 0.398,1.096 1.164,1.392 1.712,1.194 l 59.425,-21.702 c 2.609,-1.027 1.397,-3.784 -0.271,-4.764 -1.662,-0.975 -11.393,-6.561 -11.393,-6.561 -0.296,-0.185 -0.232,-0.344 -0.027,-0.449 l 12.415,-4.712 c 2.13,-0.785 4.41,-0.452 6.677,0.812 2.103,1.17 9.95,5.708 11.216,6.446 1.266,0.737 3.774,1.232 7.254,-0.033 L 0.97,3.356 C 1.516,3.157 1.867,2.419 1.528,1.31 1.211,0.351 0.549,-0.199 0,0"
             style="fill:#c3c5c7;fill-opacity:1;fill-rule:nonzero;stroke:none"
             id="path95126" />
        </g>
        <g
           id="g95128"
           transform="translate(258.149,324.515)">
          <path
             d="m 0,0 -61.237,22.245 c -3.269,1.053 -4.539,0.486 -6.12,-0.463 -1.582,-0.948 -7.307,-4.124 -10.788,-6.232 -3.48,-2.108 -5.853,-1.489 -8.03,-0.798 l -12.763,4.773 c -4.565,1.647 -3.588,4.623 -1.065,6.271 l 10.111,5.902 c 0.455,0.269 0.455,0.585 0.119,0.752 l -56.825,20.848 c -0.547,0.199 -1.143,0.819 -0.745,1.913 0.399,1.095 1.166,1.181 1.713,0.982 l 59.333,-21.715 c 2.489,-1.013 1.414,-3.466 -0.245,-4.462 -1.648,-0.988 -11.301,-6.574 -11.301,-6.574 -0.444,-0.276 -0.347,-0.513 -0.04,-0.672 l 12.52,-4.752 c 2.19,-0.807 4.503,-0.518 6.85,0.799 2.1,1.176 9.949,5.695 11.213,6.433 1.267,0.737 3.645,1.22 7.125,-0.046 L 0.731,3.052 C 1.279,2.853 1.744,2.268 1.437,1.152 1.159,0.26 0.546,-0.199 0,0"
             style="fill:#b7b9bc;fill-opacity:1;fill-rule:nonzero;stroke:none"
             id="path95130" />
        </g>
        <g
           id="g95132"
           transform="translate(258.544,324.621)">
          <path
             d="m 0,0 -61.684,22.389 c -3.269,1.054 -4.474,0.5 -6.056,-0.449 -1.582,-0.948 -7.187,-4.058 -10.668,-6.166 -3.48,-2.108 -5.905,-1.528 -8.083,-0.837 l -12.79,4.824 c -4.328,1.564 -3.496,4.202 -1.011,5.837 l 10.071,5.902 c 0.607,0.359 0.607,0.78 0.158,1.001 l -56.983,20.955 c -0.547,0.199 -1.301,0.675 -0.902,1.768 0.398,1.095 1.165,0.97 1.712,0.771 l 59.241,-21.729 c 2.369,-0.998 1.43,-3.147 -0.219,-4.157 -1.635,-1.001 -11.208,-6.588 -11.208,-6.588 -0.592,-0.368 -0.464,-0.685 -0.053,-0.896 l 12.625,-4.791 c 2.248,-0.829 4.595,-0.585 7.02,0.786 2.098,1.181 9.952,5.681 11.216,6.419 1.265,0.738 3.511,1.207 6.992,-0.059 L 0.494,2.75 C 1.042,2.551 1.623,2.118 1.344,0.994 1.106,0.169 0.549,-0.199 0,0"
             style="fill:#abadb0;fill-opacity:1;fill-rule:nonzero;stroke:none"
             id="path95134" />
        </g>
        <g
           id="g95136"
           transform="translate(258.859,324.704)">
          <path
             d="m 0,0 -62.041,22.505 c -3.27,1.055 -4.422,0.512 -6.004,-0.438 -1.582,-0.949 -7.093,-4.005 -10.573,-6.113 -3.48,-2.108 -5.947,-1.56 -8.125,-0.868 l -12.811,4.866 c -4.139,1.498 -3.424,3.863 -0.969,5.488 l 10.04,5.903 c 0.728,0.43 0.728,0.936 0.189,1.202 l -57.11,21.039 c -0.547,0.199 -1.426,0.558 -1.028,1.651 0.398,1.095 1.165,0.802 1.712,0.603 l 59.167,-21.739 c 2.273,-0.987 1.444,-2.892 -0.198,-3.916 -1.624,-1.011 -11.134,-6.597 -11.134,-6.597 -0.71,-0.443 -0.556,-0.823 -0.063,-1.076 l 12.709,-4.823 c 2.296,-0.847 4.668,-0.638 7.158,0.776 2.094,1.185 9.95,5.671 11.214,6.408 1.267,0.738 3.405,1.196 6.886,-0.069 L 0.306,2.508 C 0.853,2.309 1.526,1.998 1.27,0.868 1.066,0.098 0.549,-0.199 0,0"
             style="fill:#babcbe;fill-opacity:1;fill-rule:nonzero;stroke:none"
             id="path95138" />
        </g>
        <g
           id="g95140"
           transform="translate(259.178,324.789)">
          <path
             d="m 0,0 -62.401,22.622 c -3.27,1.053 -4.37,0.52 -5.952,-0.428 -1.582,-0.949 -6.998,-3.953 -10.478,-6.061 -3.48,-2.108 -5.99,-1.592 -8.166,-0.9 l -12.834,4.909 c -3.949,1.43 -3.35,3.525 -0.927,5.141 l 10.008,5.902 c 0.851,0.501 0.851,1.091 0.222,1.402 l -57.236,21.123 c -0.547,0.199 -1.554,0.442 -1.156,1.536 0.399,1.094 1.166,0.633 1.713,0.434 l 59.093,-21.749 c 2.177,-0.977 1.457,-2.638 -0.177,-3.674 -1.612,-1.023 -11.06,-6.609 -11.06,-6.609 -0.828,-0.516 -0.649,-0.959 -0.074,-1.254 l 12.794,-4.854 c 2.343,-0.866 4.742,-0.691 7.294,0.765 2.092,1.189 9.95,5.66 11.216,6.398 1.264,0.737 3.3,1.185 6.78,-0.081 L 0.114,2.265 C 0.662,2.066 1.427,1.877 1.195,0.741 1.022,0.024 0.546,-0.199 0,0"
             style="fill:#c9cbcc;fill-opacity:1;fill-rule:nonzero;stroke:none"
             id="path95142" />
        </g>
        <g
           id="g95144"
           transform="translate(259.494,324.873)">
          <path
             d="m 0,0 -62.76,22.737 c -3.269,1.054 -4.316,0.531 -5.898,-0.417 -1.582,-0.949 -6.904,-3.9 -10.384,-6.008 -3.48,-2.108 -6.031,-1.623 -8.209,-0.932 l -12.853,4.951 c -3.761,1.363 -3.279,3.188 -0.885,4.793 l 9.976,5.903 c 0.972,0.572 0.972,1.247 0.253,1.602 l -57.363,21.207 c -0.547,0.199 -1.68,0.327 -1.281,1.42 0.398,1.094 1.165,0.465 1.712,0.266 l 59.019,-21.761 c 2.082,-0.965 1.472,-2.382 -0.155,-3.43 -1.603,-1.033 -10.987,-6.62 -10.987,-6.62 -0.947,-0.59 -0.741,-1.096 -0.084,-1.433 l 12.877,-4.886 c 2.39,-0.883 4.817,-0.742 7.432,0.754 2.09,1.194 9.951,5.649 11.215,6.388 1.266,0.737 3.195,1.174 6.674,-0.091 L -0.076,2.022 C 0.472,1.824 1.328,1.757 1.121,0.615 0.981,-0.049 0.548,-0.199 0,0"
             style="fill:#d7d8da;fill-opacity:1;fill-rule:nonzero;stroke:none"
             id="path95146" />
        </g>
        <g
           id="g95148"
           transform="translate(259.809,324.958)">
          <path
             d="m 0,0 -63.117,22.852 c -3.27,1.055 -4.265,0.543 -5.847,-0.406 -1.582,-0.949 -6.807,-3.847 -10.288,-5.955 -3.479,-2.108 -6.074,-1.655 -8.251,-0.964 l -12.875,4.993 c -3.571,1.297 -3.206,2.851 -0.842,4.446 l 9.945,5.903 c 1.092,0.643 1.092,1.402 0.284,1.801 l -57.489,21.293 c -0.547,0.199 -1.808,0.21 -1.409,1.304 0.399,1.093 1.166,0.295 1.713,0.097 l 58.945,-21.771 c 1.986,-0.955 1.485,-2.128 -0.134,-3.189 -1.593,-1.043 -10.913,-6.629 -10.913,-6.629 -1.065,-0.665 -0.834,-1.234 -0.095,-1.613 l 12.962,-4.919 c 2.438,-0.899 4.89,-0.794 7.569,0.745 2.088,1.197 9.95,5.638 11.215,6.377 1.267,0.737 3.089,1.163 6.569,-0.101 L -0.265,1.78 C 0.282,1.581 1.232,1.636 1.049,0.488 0.94,-0.121 0.548,-0.2 0,0"
             style="fill:#e6e7e8;fill-opacity:1;fill-rule:nonzero;stroke:none"
             id="path95150" />
        </g>
        <g
           id="g95152"
           transform="translate(159.278,347.088)">
          <path
             d="m 0,0 13.046,-4.949 c 2.485,-0.918 4.964,-0.848 7.706,0.733 2.085,1.202 9.951,5.628 11.217,6.366 1.264,0.738 2.984,1.154 6.463,-0.112 l 61.961,-22.547 c 0.548,-0.198 1.588,-0.021 1.429,-1.175 -0.076,-0.556 -0.425,-0.561 -0.975,-0.362 L 37.371,0.923 c -3.27,1.054 -4.21,0.552 -5.792,-0.396 -1.582,-0.949 -6.713,-3.794 -10.194,-5.902 -3.48,-2.108 -6.116,-1.687 -8.294,-0.996 L 0.196,-1.335 c -3.383,1.23 -3.135,2.512 -0.801,4.097 l 9.914,5.902 c 1.213,0.716 1.213,1.56 0.316,2.003 l -57.616,21.376 c -0.547,0.2 -1.934,0.094 -1.536,1.188 0.399,1.095 1.165,0.127 1.713,-0.071 L 11.058,11.378 C 12.948,10.435 12.555,9.506 10.944,8.432 9.362,7.378 0.105,1.792 0.105,1.792 -1.077,1.054 -0.821,0.422 0,0"
             style="fill:#eeeff0;fill-opacity:1;fill-rule:nonzero;stroke:none"
             id="path95154" />
        </g>
      </g>
    </g>
    <g
       id="g95156"
       transform="matrix(0.35277777,0,0,-0.35277777,109.10145,195.23473)">
      <path
         d="m 0,0 54.297,-19.771 c 0.548,-0.199 1.315,0.533 1.714,1.627 0.397,1.094 0.277,2.135 -0.27,2.334 L -4.532,6.105 c -3.481,1.265 -6.254,0.743 -7.519,0.006 -1.266,-0.738 -9.106,-5.312 -11.216,-6.472 -2.109,-1.159 -4.324,-1.581 -6.335,-0.839 l -12.203,4.634 c 0,0 9.89,5.586 11.578,6.534 1.687,0.949 3.171,4.317 0.324,5.371 l -59.61,21.676 c -0.547,0.199 -1.314,-0.52 -1.712,-1.614 -0.399,-1.095 -0.278,-2.149 0.269,-2.349 L -34.605,12.52 -44.835,6.618 c -2.637,-1.687 -4.051,-5.679 1.222,-7.576 l 12.685,-4.614 c 2.177,-0.69 4.392,-1.429 7.872,0.679 3.481,2.108 9.56,5.481 11.142,6.43 1.582,0.948 3.051,1.555 6.319,0.501 l 2.569,-0.936"
         style="fill:none;stroke:#231f20;stroke-width:0.496;stroke-linecap:butt;stroke-linejoin:round;stroke-miterlimit:4;stroke-dasharray:none;stroke-opacity:1"
         id="path95158" />
    </g>
    <g
       id="g95160"
       transform="matrix(0.35277777,0,0,-0.35277777,94.353579,194.02329)">
      <path
         d="M 0,0 C -0.685,0.264 -0.211,1.001 0.316,1.317"
         style="fill:none;stroke:#231f20;stroke-width:0.297;stroke-linecap:butt;stroke-linejoin:round;stroke-miterlimit:4;stroke-dasharray:none;stroke-opacity:1"
         id="path95162" />
      <g
         id="g95164"
         transform="translate(7.2,9.086)">
        <path
           d="M 0,0 C 0.897,0.611 0.37,0.874 -0.21,1.138"
           style="fill:none;stroke:#231f20;stroke-width:0.297;stroke-linecap:butt;stroke-linejoin:round;stroke-miterlimit:4;stroke-dasharray:none;stroke-opacity:1"
           id="path95166" />
      </g>
    </g>
    <g
       id="g95168"
       transform="matrix(0.35277777,0,0,-0.35277777,102.19583,191.94084)">
      <path
         d="M 0,0 V 38.44"
         style="fill:none;stroke:#231f20;stroke-width:0.496;stroke-linecap:butt;stroke-linejoin:round;stroke-miterlimit:4;stroke-dasharray:none;stroke-opacity:1"
         id="path95170" />
    </g>
    <path
       d="M 106.23796,206.96494 V 196.75626"
       style="fill:none;stroke:#231f20;stroke-width:0.104775;stroke-linecap:butt;stroke-linejoin:round;stroke-miterlimit:4;stroke-dasharray:none;stroke-opacity:1"
       id="path95174" />
    <path
       d="m 106.23796,195.93781 v -0.87136"
       style="fill:none;stroke:#231f20;stroke-width:0.104775;stroke-linecap:butt;stroke-linejoin:round;stroke-miterlimit:4;stroke-dasharray:none;stroke-opacity:1"
       id="path95178" />
    <path
       d="m 98.127246,204.01466 v -6.38669"
       style="fill:none;stroke:#231f20;stroke-width:0.104775;stroke-linecap:butt;stroke-linejoin:round;stroke-miterlimit:4;stroke-dasharray:none;stroke-opacity:1"
       id="path95182" />
    <g
       id="g95184"
       transform="matrix(0.35277777,0,0,-0.35277777,98.127246,195.06257)">
      <path
         d="M 0,0 V 0.949"
         style="fill:none;stroke:#231f20;stroke-width:0.297;stroke-linecap:butt;stroke-linejoin:round;stroke-miterlimit:4;stroke-dasharray:none;stroke-opacity:1"
         id="path95186" />
      <g
         id="g95188"
         transform="translate(0,3.163)">
        <path
           d="M 0,0 V 4.347"
           style="fill:none;stroke:#231f20;stroke-width:0.297;stroke-linecap:butt;stroke-linejoin:round;stroke-miterlimit:4;stroke-dasharray:none;stroke-opacity:1"
           id="path95190" />
        <g
           id="g95192"
           transform="translate(-59.063,25.832)">
          <path
             d="M 0,0 V -32.885"
             style="fill:none;stroke:#231f20;stroke-width:0.297;stroke-linecap:butt;stroke-linejoin:round;stroke-miterlimit:4;stroke-dasharray:none;stroke-opacity:1"
             id="path95194" />
          <g
             id="g95196"
             transform="translate(2.045,-28.57)">
            <path
               d="M 0,0 7.228,-2.632"
               style="fill:none;stroke:#231f20;stroke-width:0.297;stroke-linecap:butt;stroke-linejoin:round;stroke-miterlimit:4;stroke-dasharray:none;stroke-opacity:1"
               id="path95198" />
            <g
               id="g95200"
               transform="translate(24.467,-8.908)">
              <path
                 d="M 0,0 7.585,-2.762"
                 style="fill:none;stroke:#231f20;stroke-width:0.297;stroke-linecap:butt;stroke-linejoin:round;stroke-miterlimit:4;stroke-dasharray:none;stroke-opacity:1"
                 id="path95202" />
              <g
                 id="g95204"
                 transform="translate(9.786,-3.548)">
                <path
                   d="M 0,0 21.694,-7.897"
                   style="fill:none;stroke:#231f20;stroke-width:0.297;stroke-linecap:butt;stroke-linejoin:round;stroke-miterlimit:4;stroke-dasharray:none;stroke-opacity:1"
                   id="path95206" />
                <g
                   id="g95208"
                   transform="translate(24.624,-8.962)">
                  <path
                     d="M 0,0 19.359,-7.042"
                     style="fill:none;stroke:#231f20;stroke-width:0.297;stroke-linecap:butt;stroke-linejoin:round;stroke-miterlimit:4;stroke-dasharray:none;stroke-opacity:1"
                     id="path95210" />
                  <g
                     id="g95212"
                     transform="translate(22.665,-8.245)">
                    <path
                       d="M 0,0 18.855,-6.858"
                       style="fill:none;stroke:#231f20;stroke-width:0.297;stroke-linecap:butt;stroke-linejoin:round;stroke-miterlimit:4;stroke-dasharray:none;stroke-opacity:1"
                       id="path95214" />
                    <g
                       id="g95216"
                       transform="translate(37.043,-13.474)">
                      <path
                         d="M 0,0 18.808,-6.841"
                         style="fill:none;stroke:#231f20;stroke-width:0.297;stroke-linecap:butt;stroke-linejoin:round;stroke-miterlimit:4;stroke-dasharray:none;stroke-opacity:1"
                         id="path95218" />
                      <g
                         id="g95220"
                         transform="translate(20.488,-12.511)">
                        <path
                           d="M 0,0 V 28.247"
                           style="fill:none;stroke:#231f20;stroke-width:0.297;stroke-linecap:butt;stroke-linejoin:round;stroke-miterlimit:4;stroke-dasharray:none;stroke-opacity:1"
                           id="path95222" />
                      </g>
                    </g>
                  </g>
                </g>
              </g>
            </g>
          </g>
        </g>
      </g>
    </g>
    <g
       id="g95224"
       transform="matrix(0.35277777,0,0,-0.35277777,136.27416,204.36039)">
      <path
         d="M 0,0 -164.507,59.839"
         style="fill:none;stroke:#231f20;stroke-width:0.496;stroke-linecap:butt;stroke-linejoin:round;stroke-miterlimit:4;stroke-dasharray:none;stroke-opacity:1"
         id="path95226" />
    </g>
    <g
       id="g95228"
       transform="matrix(0.35277777,0,0,-0.35277777,107.1005,192.29468)">
      <path
         d="M 0,0 10.567,6.096"
         style="fill:none;stroke:#231f20;stroke-width:0.297;stroke-linecap:butt;stroke-linejoin:round;stroke-miterlimit:4;stroke-dasharray:none;stroke-opacity:1"
         id="path95230" />
      <g
         id="g95232"
         transform="translate(4.609,4.14)">
        <path
           d="M 0,0 -7.04,2.561"
           style="fill:none;stroke:#231f20;stroke-width:0.297;stroke-linecap:butt;stroke-linejoin:round;stroke-miterlimit:4;stroke-dasharray:none;stroke-opacity:1"
           id="path95234" />
        <g
           id="g95236"
           transform="translate(-3.952,5.562)">
          <path
             d="M 0,0 -68.557,-39.898"
             style="fill:none;stroke:#231f20;stroke-width:0.297;stroke-linecap:butt;stroke-linejoin:round;stroke-miterlimit:4;stroke-dasharray:none;stroke-opacity:1"
             id="path95238" />
          <g
             id="g95240"
             transform="translate(-8.681,-24.579)">
            <path
               d="M 0,0 12.584,7.255"
               style="fill:none;stroke:#231f20;stroke-width:0.297;stroke-linecap:butt;stroke-linejoin:round;stroke-miterlimit:4;stroke-dasharray:none;stroke-opacity:1"
               id="path95242" />
            <g
               id="g95244"
               transform="translate(3.145,-2.37)">
              <path
                 d="M 0,0 -9.522,3.376"
                 style="fill:none;stroke:#231f20;stroke-width:0.297;stroke-linecap:butt;stroke-linejoin:round;stroke-miterlimit:4;stroke-dasharray:none;stroke-opacity:1"
                 id="path95246" />
            </g>
          </g>
        </g>
      </g>
    </g>
    <g
       id="g95248"
       transform="matrix(0.35277777,0,0,-0.35277777,106.92834,189.93848)">
      <path
         d="M 0,0 -1.048,-0.359 -1.549,-0.916 -3.228,0.434 0,0"
         style="fill:#231f20;fill-opacity:1;fill-rule:nonzero;stroke:none"
         id="path95250" />
    </g>
    <g
       id="g95252"
       transform="matrix(0.35277777,0,0,-0.35277777,108.11897,190.87404)">
      <path
         d="M 0,0 1.048,0.359 1.55,0.916 3.227,-0.434 0,0"
         style="fill:#231f20;fill-opacity:1;fill-rule:nonzero;stroke:none"
         id="path95254" />
    </g>
    <g
       id="g95256"
       transform="matrix(0.35277777,0,0,-0.35277777,108.21951,194.98567)">
      <path
         d="M 0,0 1.095,-0.172 1.688,-0.634 3.106,0.987 0,0"
         style="fill:#231f20;fill-opacity:1;fill-rule:nonzero;stroke:none"
         id="path95258" />
    </g>
    <g
       id="g95260"
       transform="matrix(0.35277777,0,0,-0.35277777,104.85577,197.43218)">
      <path
         d="M 0,0 -1.095,0.171 -1.686,0.634 -3.104,-0.988 0,0"
         style="fill:#231f20;fill-opacity:1;fill-rule:nonzero;stroke:none"
         id="path95262" />
    </g>
    <g
       id="g95264"
       transform="matrix(0.35277777,0,0,-0.35277777,99.053285,202.32839)">
      <path
         d="M 0,0 -0.289,-0.59 0,-1.392 -2.609,0.253 0,0"
         style="fill:#231f20;fill-opacity:1;fill-rule:nonzero;stroke:none"
         id="path95266" />
    </g>
    <g
       id="g95268"
       transform="matrix(0.35277777,0,0,-0.35277777,97.211432,202.14917)">
      <path
         d="M 0,0 0.291,0.59 0,1.391 2.611,-0.255 0,0"
         style="fill:#231f20;fill-opacity:1;fill-rule:nonzero;stroke:none"
         id="path95270" />
    </g>
    <g
       id="g95272"
       transform="matrix(0.35277777,0,0,-0.35277777,107.164,205.26597)">
      <path
         d="M 0,0 -0.29,-0.59 0,-1.391 -2.611,0.255 0,0"
         style="fill:#231f20;fill-opacity:1;fill-rule:nonzero;stroke:none"
         id="path95274" />
    </g>
    <g
       id="g95276"
       transform="matrix(0.35277777,0,0,-0.35277777,105.32215,205.08676)">
      <path
         d="M 0,0 0.289,0.59 0,1.392 2.61,-0.254 0,0"
         style="fill:#231f20;fill-opacity:1;fill-rule:nonzero;stroke:none"
         id="path95278" />
    </g>
    <g
       id="g95280"
       transform="matrix(0.35277777,0,0,-0.35277777,126.17519,212.67218)">
      <path
         d="M 0,0 0.288,0.591 0,1.391 2.609,-0.254 0,0"
         style="fill:#231f20;fill-opacity:1;fill-rule:nonzero;stroke:none"
         id="path95282" />
    </g>
    <g
       id="g95284"
       transform="matrix(0.35277777,0,0,-0.35277777,78.237632,194.74296)">
      <path
         d="M 0,0 -0.29,-0.59 0,-1.392 -2.61,0.254 0,0"
         style="fill:#231f20;fill-opacity:1;fill-rule:nonzero;stroke:none"
         id="path95286" />
    </g>
    <text
       xml:space="preserve"
       transform="scale(1.0002835,0.99971661)"
       style="font-style:italic;font-variant:normal;font-size:2.80047px;font-family:'Times New Roman';-inkscape-font-specification:TimesTen-Italic;writing-mode:lr-tb;fill:#231f20;fill-opacity:1;fill-rule:nonzero;stroke:none;stroke-width:0.352678"
       id="text95290"
       x="81.144447"
       y="204.39749"><tspan
         x="81.144447"
         y="204.39749"
         id="tspan95288"
         style="stroke-width:0.352678">x</tspan></text>
    <text
       xml:space="preserve"
       transform="scale(1.0002835,0.99971661)"
       style="font-variant:normal;font-weight:normal;font-size:2.80047px;font-family:'Times New Roman';-inkscape-font-specification:TimesTen-Roman;writing-mode:lr-tb;fill:#231f20;fill-opacity:1;fill-rule:nonzero;stroke:none;stroke-width:0.352678"
       id="text95298"
       x="80.640366"
       y="197.91748"><tspan
         x="80.640366 82.040604 82.740715 84.140953 84.841072"
         y="197.91748"
         sodipodi:role="line"
         id="tspan95292"
         style="stroke-width:0.352678">0.6 m</tspan><tspan
         x="113.95508 115.35531 116.05544 117.45567 118.15578"
         y="209.81361"
         sodipodi:role="line"
         id="tspan95294"
         style="stroke-width:0.352678">0.6 m</tspan><tspan
         x="98.459778 99.860016 100.56013 101.96037 102.66048"
         y="206.49785"
         sodipodi:role="line"
         id="tspan95296"
         style="stroke-width:0.352678">0.2 m</tspan></text>
    <text
       xml:space="preserve"
       transform="scale(1.0002835,0.99971661)"
       style="font-variant:normal;font-weight:normal;font-size:2.80047px;font-family:CoreTTI2k;-inkscape-font-specification:CoreTTI2k;writing-mode:lr-tb;fill:#231f20;fill-opacity:1;fill-rule:nonzero;stroke:none;stroke-width:0.352678"
       id="text95302"
       x="101.5599"
       y="177.59164"><tspan
         x="101.5599"
         y="177.59164"
         id="tspan95300"
         style="font-style:italic;font-variant:normal;font-weight:normal;font-stretch:normal;font-family:'Times New Roman';-inkscape-font-specification:'Times New Roman,  Italic';stroke-width:0.352678">z</tspan></text>
    <text
       xml:space="preserve"
       transform="scale(1.0002835,0.99971661)"
       style="font-style:italic;font-variant:normal;font-size:2.80047px;font-family:'Times New Roman';-inkscape-font-specification:TimesTen-Italic;writing-mode:lr-tb;fill:#231f20;fill-opacity:1;fill-rule:nonzero;stroke:none;stroke-width:0.352678"
       id="text95312"
       x="136.78705"
       y="205.58798"><tspan
         x="136.78705"
         y="205.58798"
         id="tspan95304"
         style="stroke-width:0.352678">y</tspan><tspan
         x="127.92075"
         y="198.57251"
         id="tspan95306"
         style="stroke-width:0.352678">B</tspan><tspan
         x="99.445541"
         y="190.8575"
         id="tspan95308"
         style="stroke-width:0.352678">O</tspan><tspan
         x="73.093086"
         y="181.12585"
         id="tspan95310"
         style="stroke-width:0.352678">A</tspan></text>
    <text
       xml:space="preserve"
       transform="scale(1.0002835,0.99971661)"
       style="font-variant:normal;font-weight:normal;font-size:2.80047px;font-family:'Times New Roman';-inkscape-font-specification:TimesTen-Roman;writing-mode:lr-tb;fill:#231f20;fill-opacity:1;fill-rule:nonzero;stroke:none;stroke-width:0.352678"
       id="text95318"
       x="106.63435"
       y="199.12727"><tspan
         x="106.63435 108.03459 108.73471 110.13494 110.83506"
         y="199.12727"
         sodipodi:role="line"
         id="tspan95314"
         style="stroke-width:0.352678">0.2 m</tspan><tspan
         x="107.60892 109.00916 109.70927 111.1095 111.80962"
         y="189.23882"
         sodipodi:role="line"
         id="tspan95316"
         style="stroke-width:0.352678">0.1 m</tspan></text>
    <text
       xml:space="preserve"
       transform="scale(1.0002835,0.99971659)"
       style="font-variant:normal;font-weight:normal;font-size:2.80047px;font-family:Grk2k;-inkscape-font-specification:Grk2k;writing-mode:lr-tb;fill:#231f20;fill-opacity:1;fill-rule:nonzero;stroke:none;stroke-width:0.352678"
       id="text95322"
       x="83.902367"
       y="181.71954"><tspan
         sodipodi:role="line"
         id="tspan162699"
         x="83.902367"
         y="181.71954"
         style="font-style:italic;font-variant:normal;font-weight:normal;font-stretch:normal;font-family:'Times New Roman';-inkscape-font-specification:'Times New Roman,  Italic'">ω <tspan
   style="font-style:normal;font-variant:normal;font-weight:normal;font-stretch:normal;font-family:'Times New Roman';-inkscape-font-specification:'Times New Roman, '"
   id="tspan11615">= 30 rad/s</tspan></tspan></text>
    <g
       id="g95336"
       transform="matrix(0.35277777,0,0,-0.35277777,124.07934,202.61378)">
      <path
         d="M 0,0 C -12.841,-5.864 3.674,-13.132 20.073,-5.778 36.47,1.575 16.68,7.615 0,0"
         style="fill:#eff0f0;fill-opacity:1;fill-rule:nonzero;stroke:none"
         id="path95338" />
    </g>
    <g
       id="g95340"
       transform="matrix(0.35277777,0,0,-0.35277777,124.23421,202.65259)">
      <path
         d="M 0,0 C -12.375,-5.697 3.542,-12.761 19.345,-5.615 35.148,1.532 16.076,7.402 0,0"
         style="fill:#e9e9ea;fill-opacity:1;fill-rule:nonzero;stroke:none"
         id="path95342" />
    </g>
    <g
       id="g95344"
       transform="matrix(0.35277777,0,0,-0.35277777,124.38943,202.69104)">
      <path
         d="M 0,0 C -11.909,-5.531 3.408,-12.39 18.616,-5.452 33.824,1.487 15.47,7.187 0,0"
         style="fill:#e2e3e4;fill-opacity:1;fill-rule:nonzero;stroke:none"
         id="path95346" />
    </g>
    <g
       id="g95348"
       transform="matrix(0.35277777,0,0,-0.35277777,124.54501,202.72949)">
      <path
         d="M 0,0 C -11.445,-5.366 3.274,-12.021 17.887,-5.289 32.5,1.443 14.865,6.972 0,0"
         style="fill:#dcddde;fill-opacity:1;fill-rule:nonzero;stroke:none"
         id="path95350" />
    </g>
    <g
       id="g95352"
       transform="matrix(0.35277777,0,0,-0.35277777,124.69952,202.76759)">
      <path
         d="M 0,0 C -10.978,-5.201 3.143,-11.651 17.159,-5.126 31.177,1.398 14.259,6.757 0,0"
         style="fill:#d5d7d8;fill-opacity:1;fill-rule:nonzero;stroke:none"
         id="path95354" />
    </g>
    <g
       id="g95356"
       transform="matrix(0.35277777,0,0,-0.35277777,124.85439,202.80605)">
      <path
         d="M 0,0 C -10.51,-5.037 3.01,-11.28 16.432,-4.964 29.857,1.353 13.654,6.542 0,0"
         style="fill:#cfd0d2;fill-opacity:1;fill-rule:nonzero;stroke:none"
         id="path95358" />
    </g>
    <g
       id="g95360"
       transform="matrix(0.35277777,0,0,-0.35277777,125.00997,202.8445)">
      <path
         d="M 0,0 C -10.046,-4.871 2.874,-10.909 15.703,-4.8 28.532,1.309 13.049,6.328 0,0"
         style="fill:#c9cbcc;fill-opacity:1;fill-rule:nonzero;stroke:none"
         id="path95362" />
    </g>
    <g
       id="g95364"
       transform="matrix(0.35277777,0,0,-0.35277777,125.16519,202.8826)">
      <path
         d="M 0,0 C -9.579,-4.707 2.741,-10.54 14.975,-4.638 27.208,1.264 12.443,6.113 0,0"
         style="fill:#c2c4c6;fill-opacity:1;fill-rule:nonzero;stroke:none"
         id="path95366" />
    </g>
    <g
       id="g95368"
       transform="matrix(0.35277777,0,0,-0.35277777,125.41884,204.35086)">
      <path
         d="m 0,0 1.384,7.181 c 0.224,1.562 0.923,3.228 2.01,4.611 1.622,2.061 3.599,2.804 4.905,1.998 l 3.1,-1.789 c 0.358,-0.187 0.686,-0.49 0.935,-0.896 0.203,-0.333 0.334,-0.715 0.428,-1.141 L 14.177,4.477 3.178,-1.835 0,0"
         style="fill:#bec0c2;fill-opacity:1;fill-rule:nonzero;stroke:none"
         id="path95370" />
    </g>
    <g
       id="g95372"
       transform="matrix(0.35277777,0,0,-0.35277777,37.605747,316.5797)">
      <g
         id="g95374"
         clip-path="url(#clipPath95378)">
        <g
           id="g95380">
          <g
             id="g95386">
            <g
               id="g95388"
               clip-path="url(#clipPath95392)">
              <path
                 d="m 257.218,331.92 c -1.307,0.805 -3.283,0.062 -4.905,-1.999 -1.087,-1.383 -1.787,-3.049 -2.01,-4.611 l -1.384,-7.181 3.177,-1.834 1.454,7.16 c 0.224,1.56 0.913,3.215 2,4.597 1.497,1.903 3.309,2.676 4.606,2.149 l -2.938,1.719"
                 style="fill:url(#linearGradient95400);stroke:none"
                 id="path95402" />
            </g>
          </g>
        </g>
      </g>
    </g>
    <g
       id="g95404"
       transform="matrix(0.35277777,0,0,-0.35277777,129.383,200.09213)">
      <path
         d="m 0,0 c -1.297,0.527 -3.11,-0.246 -4.606,-2.149 -1.087,-1.382 -1.777,-3.036 -2.001,-4.597 l -1.453,-7.16"
         style="fill:none;stroke:#ffffff;stroke-width:0.422;stroke-linecap:butt;stroke-linejoin:miter;stroke-miterlimit:4;stroke-dasharray:none;stroke-opacity:1"
         id="path95406" />
    </g>
    <g
       id="g95408"
       transform="matrix(0.35277777,0,0,-0.35277777,128.20684,204.04112)">
      <path
         d="m 0,0 -4.725,-2.712 -3.178,1.835 1.384,7.18 c 0.224,1.562 0.923,3.228 2.01,4.611 1.622,2.062 3.599,2.805 4.905,1.999 l 3.1,-1.79 C 3.854,10.936 4.182,10.634 4.431,10.228 4.634,9.895 4.765,9.513 4.859,9.087 L 6.274,3.599 Z"
         style="fill:none;stroke:#231f20;stroke-width:0.496;stroke-linecap:butt;stroke-linejoin:miter;stroke-miterlimit:4;stroke-dasharray:none;stroke-opacity:1"
         id="path95410" />
    </g>
    <g
       id="g95412"
       transform="matrix(0.35277777,0,0,-0.35277777,128.28163,202.21938)">
      <path
         d="M 0,0 C 0.546,-0.199 1.313,0.527 1.712,1.621 2.111,2.714 1.99,3.762 1.443,3.962 0.895,4.16 0.128,3.435 -0.27,2.341 -0.669,1.248 -0.547,0.199 0,0"
         style="fill:#bfc1c3;fill-opacity:1;fill-rule:nonzero;stroke:none"
         id="path95414" />
    </g>
    <g
       id="g95416"
       transform="matrix(0.35277777,0,0,-0.35277777,128.28163,202.21938)">
      <path
         d="M 0,0 C 0.546,-0.199 1.313,0.527 1.712,1.621 2.111,2.714 1.99,3.762 1.443,3.962 0.895,4.16 0.128,3.435 -0.27,2.341 -0.669,1.248 -0.547,0.199 0,0 Z"
         style="fill:none;stroke:#231f20;stroke-width:0.496;stroke-linecap:butt;stroke-linejoin:round;stroke-miterlimit:4;stroke-dasharray:none;stroke-opacity:1"
         id="path95418" />
    </g>
    <g
       id="g95420"
       transform="matrix(0.35277777,0,0,-0.35277777,87.548143,182.6769)">
      <path
         d="m 0,0 c -2.534,0.936 -6.062,-2.291 -7.879,-7.208 -1.818,-4.916 -1.237,-9.659 1.297,-10.596 l 0.792,-0.292 c -2.535,0.936 -3.116,5.679 -1.297,10.596 1.816,4.916 5.345,8.144 7.879,7.208 L 0,0"
         style="fill:#231f20;fill-opacity:1;fill-rule:nonzero;stroke:none"
         id="path95422" />
    </g>
    <g
       id="g95424"
       transform="matrix(0.35277777,0,0,-0.35277777,87.548143,182.6769)">
      <path
         d="m 0,0 c -2.534,0.936 -6.062,-2.291 -7.879,-7.208 -1.818,-4.916 -1.237,-9.659 1.297,-10.596 l 0.792,-0.292 c -2.535,0.936 -3.116,5.679 -1.297,10.596 1.816,4.916 5.345,8.144 7.879,7.208 z"
         style="fill:none;stroke:#ffffff;stroke-width:0.992;stroke-linecap:butt;stroke-linejoin:miter;stroke-miterlimit:4;stroke-dasharray:none;stroke-opacity:1"
         id="path95426" />
    </g>
    <g
       id="g95428"
       transform="matrix(0.35277777,0,0,-0.35277777,87.548143,182.6769)">
      <path
         d="m 0,0 c -2.534,0.936 -6.062,-2.291 -7.879,-7.208 -1.818,-4.916 -1.237,-9.659 1.297,-10.596 l 0.792,-0.292 c -2.535,0.936 -3.116,5.679 -1.297,10.596 1.816,4.916 5.345,8.144 7.879,7.208 L 0,0"
         style="fill:#005daa;fill-opacity:1;fill-rule:nonzero;stroke:none"
         id="path95430" />
    </g>
  </g>
</svg>
