<?xml version="1.0" encoding="UTF-8" standalone="no"?>
<!-- Uploaded to: SVG Repo, www.svgrepo.com, Generator: SVG Repo Mixer Tools -->

<svg
   height="20"
   width="28.263544"
   version="1.1"
   id="Layer_1"
   viewBox="0 0 16.286903 11.525025"
   xml:space="preserve"
   sodipodi:docname="youtube.svg"
   inkscape:version="1.2.2 (b0a8486541, 2022-12-01)"
   xmlns:inkscape="http://www.inkscape.org/namespaces/inkscape"
   xmlns:sodipodi="http://sodipodi.sourceforge.net/DTD/sodipodi-0.dtd"
   xmlns="http://www.w3.org/2000/svg"
   xmlns:svg="http://www.w3.org/2000/svg"><defs
   id="defs266" /><sodipodi:namedview
   id="namedview264"
   pagecolor="#ffffff"
   bordercolor="#999999"
   borderopacity="1"
   inkscape:showpageshadow="0"
   inkscape:pageopacity="0"
   inkscape:pagecheckerboard="0"
   inkscape:deskcolor="#d1d1d1"
   showgrid="false"
   inkscape:zoom="1.4361764"
   inkscape:cx="327.95413"
   inkscape:cy="286.52468"
   inkscape:window-width="1920"
   inkscape:window-height="1060"
   inkscape:window-x="0"
   inkscape:window-y="1"
   inkscape:window-maximized="1"
   inkscape:current-layer="Layer_1" />
<g
   id="g261"
   transform="matrix(0.03532943,0,0,0.03532943,0,-2.3809563)">
	<path
   style="fill:#f61c0d"
   d="M 365.257,67.393 H 95.744 C 42.866,67.393 0,110.259 0,163.137 v 134.728 c 0,52.878 42.866,95.744 95.744,95.744 h 269.513 c 52.878,0 95.744,-42.866 95.744,-95.744 V 163.137 c 0,-52.878 -42.866,-95.744 -95.744,-95.744 z m -64.751,169.663 -126.06,60.123 c -3.359,1.602 -7.239,-0.847 -7.239,-4.568 V 168.607 c 0,-3.774 3.982,-6.22 7.348,-4.514 l 126.06,63.881 c 3.748,1.899 3.683,7.274 -0.109,9.082 z"
   id="path259" />
</g>
</svg>
